<svg xmlns="http://www.w3.org/2000/svg" version="1.1" xmlns:xlink="http://www.w3.org/1999/xlink" width="84" height="94"><svg width="84" height="94" viewBox="0 0 84 94" fill="none" xmlns="http://www.w3.org/2000/svg">
<path fill-rule="evenodd" clip-rule="evenodd" d="M26.7585 53.7001V27.2914H64.8592V19.6779H19.1348L19.1478 58.0746C33.1045 66.1332 47.0601 74.1916 61.0165 82.2487L83.893 69.0385L83.8917 0.648285H0.108521L0.106567 69.0385L22.9815 82.2473L38.1888 73.4677L30.5981 69.0844L22.9903 73.4778L7.71597 64.6597L7.72189 8.26187H76.2794L76.2838 64.6597L61.0051 73.4806C49.5893 66.8872 38.173 60.2964 26.7585 53.7001ZM38.1917 46.341H57.2412V53.7001L45.8037 60.3052L53.3957 64.6882L64.8522 58.0746L64.8592 38.7246H38.1917V46.341ZM49.5991 88.8408L42.0001 84.4534L34.4006 88.8408L42.0001 93.2282L49.5991 88.8408Z" fill="#C61D35"></path>
</svg><style>@media (prefers-color-scheme: light) { :root { filter: none; } }
@media (prefers-color-scheme: dark) { :root { filter: none; } }
</style></svg>