<svg width="23" height="23" viewBox="0 0 23 23">
<path fill-rule="evenodd" clip-rule="evenodd" d="M22.7042 22.2409C22.3032 22.6419 21.7015 22.6419 21.3007 22.2409L15.5857 16.5259C12.0264 19.3833 6.86247 19.1328 3.55397 15.8743C0.044672 12.365 0.044672 6.64974 3.55397 3.09036C7.06327 -0.418954 12.7785 -0.418954 16.3379 3.09036C19.6466 6.3991 19.8472 11.5627 16.9895 15.1221L22.7045 20.837C23.1056 21.2379 23.1053 21.89 22.7042 22.2409ZM14.9338 4.54447C12.1767 1.78731 7.76476 1.78731 5.00784 4.54447C2.25068 7.30163 2.25068 11.7135 5.00784 14.4704C7.76501 17.2276 12.1769 17.2276 14.9338 14.4704C17.6912 11.7133 17.6912 7.30186 14.9338 4.54447Z"/>
</svg>
