<svg width="21" height="26" viewBox="0 0 21 26" fill="none" xmlns="http://www.w3.org/2000/svg">
<path d="M16.8564 1.8761C17.7352 1.8761 18.4457 2.5863 18.4457 3.46521V22.5348C18.4457 23.412 17.7352 24.1239 16.8564 24.1239H4.14362C3.26636 24.1239 2.55444 23.412 2.55444 22.5348V3.46521C2.55444 2.5863 3.26636 1.8761 4.14362 1.8761H16.8564ZM16.8564 0.287109H4.14362C2.3924 0.287109 0.965332 1.7124 0.965332 3.46521V22.5348C0.965332 24.2874 2.3924 25.7129 4.14362 25.7129H16.8564C18.6091 25.7129 20.0347 24.2874 20.0347 22.5348V3.46521C20.0347 1.7124 18.6091 0.287109 16.8564 0.287109Z" fill="currentColor"/>
<path d="M7.32178 10.6162C7.32178 10.1759 7.67773 9.8219 8.11627 9.8219H16.0619C16.5021 9.8219 16.8565 10.1759 16.8565 10.6162C16.8565 11.0549 16.5021 11.4109 16.0619 11.4109H8.11627C7.67773 11.4109 7.32178 11.0549 7.32178 10.6162Z" fill="currentColor"/>
<path d="M7.32178 5.84912C7.32178 5.40881 7.67773 5.05444 8.11627 5.05444H16.0619C16.5021 5.05444 16.8565 5.40881 16.8565 5.84912C16.8565 6.28772 16.5021 6.64368 16.0619 6.64368H8.11627C7.67773 6.64368 7.32178 6.28772 7.32178 5.84912Z" fill="currentColor"/>
<path d="M7.32178 15.3837C7.32178 14.9434 7.67773 14.5891 8.11627 14.5891H16.0619C16.5021 14.5891 16.8565 14.9434 16.8565 15.3837C16.8565 15.8223 16.5021 16.1782 16.0619 16.1782H8.11627C7.67773 16.1782 7.32178 15.8223 7.32178 15.3837Z" fill="currentColor"/>
<path d="M7.32178 20.151C7.32178 19.7106 7.67773 19.3564 8.11627 19.3564H16.0619C16.5021 19.3564 16.8565 19.7106 16.8565 20.151C16.8565 20.5896 16.5021 20.9456 16.0619 20.9456H8.11627C7.67773 20.9456 7.32178 20.5896 7.32178 20.151Z" fill="currentColor"/>
<path d="M4.14355 10.6162C4.14355 10.1759 4.49951 9.8219 4.93805 9.8219C5.37823 9.8219 5.73267 10.1759 5.73267 10.6162C5.73267 11.0549 5.37823 11.4109 4.93805 11.4109C4.49951 11.4109 4.14355 11.0549 4.14355 10.6162Z" fill="currentColor"/>
<path d="M4.14355 5.84912C4.14355 5.40881 4.49951 5.05444 4.93805 5.05444C5.37823 5.05444 5.73267 5.40881 5.73267 5.84912C5.73267 6.28772 5.37823 6.64368 4.93805 6.64368C4.49951 6.64368 4.14355 6.28772 4.14355 5.84912Z" fill="currentColor"/>
<path d="M4.14355 15.3837C4.14355 14.9434 4.49951 14.5891 4.93805 14.5891C5.37823 14.5891 5.73267 14.9434 5.73267 15.3837C5.73267 15.8223 5.37823 16.1782 4.93805 16.1782C4.49951 16.1782 4.14355 15.8223 4.14355 15.3837Z" fill="currentColor"/>
<path d="M4.14355 20.151C4.14355 19.7106 4.49951 19.3564 4.93805 19.3564C5.37823 19.3564 5.73267 19.7106 5.73267 20.151C5.73267 20.5896 5.37823 20.9456 4.93805 20.9456C4.49951 20.9456 4.14355 20.5896 4.14355 20.151Z" fill="currentColor"/>
</svg>
