<svg width="21" height="27" viewBox="0 0 21 27" fill="none" xmlns="http://www.w3.org/2000/svg">
<path d="M16.4823 6.76947C16.4823 3.47113 13.7983 0.78717 10.5 0.78717C7.20177 0.78717 4.5177 3.47113 4.5177 6.76947C4.5177 10.0678 7.20177 12.7518 10.5 12.7518C13.7983 12.7518 16.4823 10.0678 16.4823 6.76947ZM10.5 10.7576C8.30052 10.7576 6.51183 8.96893 6.51183 6.76947C6.51183 4.57001 8.30052 2.78131 10.5 2.78131C12.6995 2.78131 14.4882 4.57001 14.4882 6.76947C14.4882 8.96893 12.6995 10.7576 10.5 10.7576Z" fill="currentColor"/>
<path d="M17.9465 17.8355C16.078 15.6083 13.3022 14.2485 10.339 14.2485C4.84129 14.2485 0.36853 18.7211 0.36853 24.2188C0.36853 25.3196 1.26187 26.2128 2.36263 26.2128H16.3213H19.7078C22.1172 25.9808 19.1943 19.1176 17.9465 17.8355ZM16.3213 24.2188H14.3272H2.36263C2.36263 19.8139 5.93407 16.2425 10.339 16.2425C12.7938 16.2425 14.9693 17.3651 16.427 19.1119C16.4489 19.138 16.4689 19.1697 16.4908 19.1956C16.9016 19.7021 17.2625 20.2487 17.5417 20.8448C18.0243 21.8718 18.3154 23.0084 18.3154 24.2188H16.3213Z" fill="currentColor"/>
</svg>
